<mxfile host="app.diagrams.net" agent="Mozilla/5.0 (Windows NT 10.0; Win64; x64) AppleWebKit/537.36 (KHTML, like Gecko) Chrome/136.0.0.0 Safari/537.36" version="27.1.1">
  <diagram name="Page-1" id="cFryAmqh-J51k_uc1Snh">
    <mxGraphModel dx="1042" dy="527" grid="1" gridSize="10" guides="1" tooltips="1" connect="1" arrows="1" fold="1" page="1" pageScale="1" pageWidth="850" pageHeight="1100" background="#ffffff" math="0" shadow="0">
      <root>
        <mxCell id="0" />
        <mxCell id="1" parent="0" />
        <mxCell id="uIKkgSHkUhz3WRvkKbK2-23" style="edgeStyle=orthogonalEdgeStyle;rounded=0;orthogonalLoop=1;jettySize=auto;html=1;entryX=0;entryY=0.5;entryDx=0;entryDy=0;" edge="1" parent="1" source="uIKkgSHkUhz3WRvkKbK2-1" target="uIKkgSHkUhz3WRvkKbK2-6">
          <mxGeometry relative="1" as="geometry" />
        </mxCell>
        <mxCell id="uIKkgSHkUhz3WRvkKbK2-1" value="&lt;p style=&quot;margin:0px;margin-top:4px;text-align:center;text-decoration:underline;&quot;&gt;&lt;b&gt;person&amp;nbsp;&lt;/b&gt;&lt;/p&gt;&lt;hr size=&quot;1&quot; style=&quot;border-style:solid;&quot;&gt;&lt;p style=&quot;margin:0px;margin-left:8px;&quot;&gt;title : string&amp;nbsp;&lt;/p&gt;&lt;p style=&quot;margin:0px;margin-left:8px;&quot;&gt;middlename : string&amp;nbsp;&lt;/p&gt;&lt;p style=&quot;margin:0px;margin-left:8px;&quot;&gt;familyname : string&amp;nbsp;&lt;/p&gt;&lt;p style=&quot;margin:0px;margin-left:8px;&quot;&gt;name : string&lt;/p&gt;&lt;p style=&quot;margin:0px;margin-left:8px;&quot;&gt;age: int&amp;nbsp;&lt;span style=&quot;background-color: transparent; color: light-dark(rgb(0, 0, 0), rgb(255, 255, 255));&quot;&gt;&amp;nbsp;&lt;/span&gt;&lt;/p&gt;" style="verticalAlign=top;align=left;overflow=fill;html=1;whiteSpace=wrap;" vertex="1" parent="1">
          <mxGeometry x="100" y="40" width="160" height="110" as="geometry" />
        </mxCell>
        <mxCell id="uIKkgSHkUhz3WRvkKbK2-2" value="patient&amp;nbsp;" style="swimlane;fontStyle=0;childLayout=stackLayout;horizontal=1;startSize=26;fillColor=none;horizontalStack=0;resizeParent=1;resizeParentMax=0;resizeLast=0;collapsible=1;marginBottom=0;whiteSpace=wrap;html=1;" vertex="1" parent="1">
          <mxGeometry x="40" y="170" width="140" height="140" as="geometry" />
        </mxCell>
        <mxCell id="uIKkgSHkUhz3WRvkKbK2-3" value="id : string&amp;nbsp;&lt;div&gt;name&amp;nbsp; : fullname&lt;/div&gt;&lt;div&gt;gender : gender&amp;nbsp;&lt;/div&gt;&lt;div&gt;age : int&amp;nbsp;&lt;/div&gt;&lt;div&gt;birthdate : date&amp;nbsp;&lt;/div&gt;" style="text;strokeColor=none;fillColor=none;align=left;verticalAlign=top;spacingLeft=4;spacingRight=4;overflow=hidden;rotatable=0;points=[[0,0.5],[1,0.5]];portConstraint=eastwest;whiteSpace=wrap;html=1;" vertex="1" parent="uIKkgSHkUhz3WRvkKbK2-2">
          <mxGeometry y="26" width="140" height="114" as="geometry" />
        </mxCell>
        <mxCell id="uIKkgSHkUhz3WRvkKbK2-24" style="edgeStyle=orthogonalEdgeStyle;rounded=0;orthogonalLoop=1;jettySize=auto;html=1;entryX=0.5;entryY=0;entryDx=0;entryDy=0;" edge="1" parent="1" source="uIKkgSHkUhz3WRvkKbK2-6" target="uIKkgSHkUhz3WRvkKbK2-8">
          <mxGeometry relative="1" as="geometry" />
        </mxCell>
        <mxCell id="uIKkgSHkUhz3WRvkKbK2-6" value="&lt;p style=&quot;margin:0px;margin-top:6px;text-align:center;&quot;&gt;&lt;b&gt;hospital&amp;nbsp;&lt;/b&gt;&lt;/p&gt;&lt;hr size=&quot;1&quot; style=&quot;border-style:solid;&quot;&gt;&lt;p style=&quot;margin:0px;margin-left:8px;&quot;&gt;&amp;nbsp;name : stirng&amp;nbsp;&lt;br&gt;address : address&amp;nbsp;&lt;/p&gt;&lt;p style=&quot;margin:0px;margin-left:8px;&quot;&gt;phone : int&amp;nbsp;&lt;/p&gt;" style="align=left;overflow=fill;html=1;dropTarget=0;whiteSpace=wrap;" vertex="1" parent="1">
          <mxGeometry x="370" y="50" width="180" height="90" as="geometry" />
        </mxCell>
        <mxCell id="uIKkgSHkUhz3WRvkKbK2-7" value="" style="shape=component;jettyWidth=8;jettyHeight=4;" vertex="1" parent="uIKkgSHkUhz3WRvkKbK2-6">
          <mxGeometry x="1" width="20" height="20" relative="1" as="geometry">
            <mxPoint x="-24" y="4" as="offset" />
          </mxGeometry>
        </mxCell>
        <mxCell id="uIKkgSHkUhz3WRvkKbK2-25" style="edgeStyle=orthogonalEdgeStyle;rounded=0;orthogonalLoop=1;jettySize=auto;html=1;entryX=0.5;entryY=0;entryDx=0;entryDy=0;" edge="1" parent="1" source="uIKkgSHkUhz3WRvkKbK2-8" target="uIKkgSHkUhz3WRvkKbK2-9">
          <mxGeometry relative="1" as="geometry" />
        </mxCell>
        <mxCell id="uIKkgSHkUhz3WRvkKbK2-8" value="deparment&amp;nbsp;" style="html=1;whiteSpace=wrap;" vertex="1" parent="1">
          <mxGeometry x="405" y="180" width="110" height="50" as="geometry" />
        </mxCell>
        <mxCell id="uIKkgSHkUhz3WRvkKbK2-26" style="edgeStyle=orthogonalEdgeStyle;rounded=0;orthogonalLoop=1;jettySize=auto;html=1;entryX=1;entryY=0.75;entryDx=0;entryDy=0;" edge="1" parent="1" source="uIKkgSHkUhz3WRvkKbK2-9" target="uIKkgSHkUhz3WRvkKbK2-1">
          <mxGeometry relative="1" as="geometry" />
        </mxCell>
        <mxCell id="uIKkgSHkUhz3WRvkKbK2-9" value="&lt;p style=&quot;margin:0px;margin-top:6px;text-align:center;&quot;&gt;&lt;b&gt;staff&lt;/b&gt;&lt;/p&gt;&lt;hr size=&quot;1&quot; style=&quot;border-style:solid;&quot;&gt;&lt;p style=&quot;margin:0px;margin-left:8px;&quot;&gt;joined : date&amp;nbsp;&lt;/p&gt;&lt;p style=&quot;margin:0px;margin-left:8px;&quot;&gt;edu : string&amp;nbsp;&lt;/p&gt;&lt;p style=&quot;margin:0px;margin-left:8px;&quot;&gt;langueges : string&amp;nbsp;&lt;/p&gt;" style="align=left;overflow=fill;html=1;dropTarget=0;whiteSpace=wrap;" vertex="1" parent="1">
          <mxGeometry x="370" y="290" width="180" height="90" as="geometry" />
        </mxCell>
        <mxCell id="uIKkgSHkUhz3WRvkKbK2-10" value="" style="shape=component;jettyWidth=8;jettyHeight=4;" vertex="1" parent="uIKkgSHkUhz3WRvkKbK2-9">
          <mxGeometry x="1" width="20" height="20" relative="1" as="geometry">
            <mxPoint x="-24" y="4" as="offset" />
          </mxGeometry>
        </mxCell>
        <mxCell id="uIKkgSHkUhz3WRvkKbK2-11" value="staff" style="html=1;whiteSpace=wrap;" vertex="1" parent="1">
          <mxGeometry x="135" y="320" width="110" height="50" as="geometry" />
        </mxCell>
        <mxCell id="uIKkgSHkUhz3WRvkKbK2-29" style="edgeStyle=orthogonalEdgeStyle;rounded=0;orthogonalLoop=1;jettySize=auto;html=1;" edge="1" parent="1" source="uIKkgSHkUhz3WRvkKbK2-17" target="uIKkgSHkUhz3WRvkKbK2-11">
          <mxGeometry relative="1" as="geometry" />
        </mxCell>
        <mxCell id="uIKkgSHkUhz3WRvkKbK2-17" value="Doctor&amp;nbsp;" style="swimlane;fontStyle=0;childLayout=stackLayout;horizontal=1;startSize=26;fillColor=none;horizontalStack=0;resizeParent=1;resizeParentMax=0;resizeLast=0;collapsible=1;marginBottom=0;whiteSpace=wrap;html=1;" vertex="1" parent="1">
          <mxGeometry x="20" y="440" width="140" height="78" as="geometry" />
        </mxCell>
        <mxCell id="uIKkgSHkUhz3WRvkKbK2-18" value="speciality : string&amp;nbsp;" style="text;strokeColor=none;fillColor=none;align=left;verticalAlign=top;spacingLeft=4;spacingRight=4;overflow=hidden;rotatable=0;points=[[0,0.5],[1,0.5]];portConstraint=eastwest;whiteSpace=wrap;html=1;" vertex="1" parent="uIKkgSHkUhz3WRvkKbK2-17">
          <mxGeometry y="26" width="140" height="26" as="geometry" />
        </mxCell>
        <mxCell id="uIKkgSHkUhz3WRvkKbK2-19" value="location : string&amp;nbsp;" style="text;strokeColor=none;fillColor=none;align=left;verticalAlign=top;spacingLeft=4;spacingRight=4;overflow=hidden;rotatable=0;points=[[0,0.5],[1,0.5]];portConstraint=eastwest;whiteSpace=wrap;html=1;" vertex="1" parent="uIKkgSHkUhz3WRvkKbK2-17">
          <mxGeometry y="52" width="140" height="26" as="geometry" />
        </mxCell>
        <mxCell id="uIKkgSHkUhz3WRvkKbK2-30" style="edgeStyle=orthogonalEdgeStyle;rounded=0;orthogonalLoop=1;jettySize=auto;html=1;" edge="1" parent="1" source="uIKkgSHkUhz3WRvkKbK2-21">
          <mxGeometry relative="1" as="geometry">
            <mxPoint x="190" y="370" as="targetPoint" />
          </mxGeometry>
        </mxCell>
        <mxCell id="uIKkgSHkUhz3WRvkKbK2-21" value="nurse" style="html=1;whiteSpace=wrap;" vertex="1" parent="1">
          <mxGeometry x="220" y="470" width="110" height="50" as="geometry" />
        </mxCell>
        <mxCell id="uIKkgSHkUhz3WRvkKbK2-22" value="surgeon" style="html=1;whiteSpace=wrap;" vertex="1" parent="1">
          <mxGeometry x="35" y="600" width="110" height="50" as="geometry" />
        </mxCell>
        <mxCell id="uIKkgSHkUhz3WRvkKbK2-27" style="edgeStyle=orthogonalEdgeStyle;rounded=0;orthogonalLoop=1;jettySize=auto;html=1;entryX=-0.018;entryY=0.871;entryDx=0;entryDy=0;entryPerimeter=0;" edge="1" parent="1" source="uIKkgSHkUhz3WRvkKbK2-11" target="uIKkgSHkUhz3WRvkKbK2-9">
          <mxGeometry relative="1" as="geometry" />
        </mxCell>
        <mxCell id="uIKkgSHkUhz3WRvkKbK2-28" style="edgeStyle=orthogonalEdgeStyle;rounded=0;orthogonalLoop=1;jettySize=auto;html=1;entryX=0.75;entryY=0;entryDx=0;entryDy=0;" edge="1" parent="1" source="uIKkgSHkUhz3WRvkKbK2-3" target="uIKkgSHkUhz3WRvkKbK2-11">
          <mxGeometry relative="1" as="geometry" />
        </mxCell>
      </root>
    </mxGraphModel>
  </diagram>
</mxfile>
